<svg xmlns="http://www.w3.org/2000/svg" width="0" height="0">
<style>
.frog--shifted {
  transform: translate(150px, 150px);
}

.frog--unshifted {
  transform: translate(-150px, -150px);
}

.triangle--shifted {
  transform: translate(100px, 100px);
}

.triangle--unshifted {
  transform: translate(-100px, -100px);
}

.bg--shifted {
  transform: translate(1750px, 1100px);
}

.clickable {
  cursor: pointer;
}

.frog--large {
  transform: scale(1.2);
}

.frog__eye,
.frog__nose {
  fill: #3d2700;
}

.frog__eye--excited {
  stroke: #3d2700;
  stroke-width: 10px;
  stroke-linecap: round;
  stroke-linejoin: round;
}

.frog__eye--closed {
  width: 40px;
  height: 10px;
  rx: 5px;
}

.frog__mouth--closed {
  fill: #3d2700;
  width: 175px;
  height: 10px;
  rx: 7px;
}

.frog__mouth--open {
  fill: #fafbe3;
}

.frog__text {
  user-select: none;
  fill: #3d2700;
  font-size: 135px;
  font-weight: bold;
  font-family: Helvetica, Arial, sans-serif;
  text-anchor: middle;
  transform: translate(150px, 215px);
}

.frog__text--large {
  font-size: 160px;
  transform: translate(150px, 245px);
}

.frog__clickable-bg {
  x: -150px;
  y: -350px;
  width: 300px;
  height: 500px;
  fill: #ffffff00;
}

.row__top {
  transform: translate(-1207.5px, -130px);
}

.row__bottom {
  transform: translate(-1207.5px, 420px);
}

.hand {
  animation: upDown .5s alternate infinite ease-in-out;
}

@keyframes upDown {
  to { transform: translateY(25px); }
}

.triangle {
  stroke: #f0af1c;
  fill: #fad80a;
  stroke-width: 25px;
  stroke-linejoin: round;
  stroke-linecap: round;
}

.triangle__bg:hover {
  animation: enlarge .3s alternate infinite ease-in-out;
}

@keyframes enlarge {
  to { transform: scale(1.1); }
}

@media (prefers-reduced-motion: reduce) {
  .hand { animation: none; }
  .triangle__bg { animation: none; }
}

.hand__base {
  fill: white;
  stroke-width: 6px;
  stroke-linejoin: bevel;
  stroke-linecap: round;
  stroke: #43551b;
}

.bg__base {
  fill: #69ce2f;
}

.bg__base--behind {
  stroke: #d9f492;
  stroke-width: 150px;
  stroke-linejoin: round;
}

.bg__mouth {
  fill: #eef8bf;
}

.bg__line {
  stroke-width: 15px;
  stroke-linecap: round;
  stroke: #efd790;
}

.bg__eye,
.bg__nose {
  fill: #43551b;
}

.bg__note {
  fill: #f0af1c;
}

.note_picker {
  transform: translate(-650px, 850px);
}

.note_picker__bg {
  transform: translate(-90px, -90px);
  width: 2450px;
  height: 180px;
  rx: 50px;
  fill: #fef9e3bb;
}

.note_picker__current {
  transform: translate(-50px, 75px);
  width: 100px;
  height: 10px;
}

.note_picker__text {
  user-select: none;
  fill: #f9fbe2;
  font-size: 100px;
  transform: translate(0, 35px);
  font-weight: bold;
  font-family: Helvetica, Arial, sans-serif;
  text-anchor: middle;
}
</style>

<defs>
<symbol id="frog-base">
  <g class="frog__base frog--shifted">
    <ellipse cx="0" cy="0" rx="150" ry="120"></ellipse>
    <circle r="40" cx="-60" cy="-110"></circle>
    <circle r="40" cx="60" cy="-110"></circle>
  </g>
</symbol>

<mask id="frog-mouth-mask">
  <ellipse cx="0" cy="55" rx="260" ry="115" fill="white"></ellipse>
</mask>

<symbol id="frog-nose">
  <g class="frog--shifted frog__nose">
    <circle r="3" cx="-9" cy="-85"></circle>
    <circle r="3" cx="9" cy="-85"></circle>
  </g>
</symbol>

<symbol id="frog-eyes-and-mouth">
  <use href="#frog-nose" />
  <g class="frog--shifted">
    <g class="frog__eye">
      <circle r="15" cx="-60" cy="-110"></circle>
      <circle r="15" cx="60" cy="-110"></circle>
    </g>

    <g class="frog__mouth--open">
      <ellipse cx="0" cy="5" rx="120" ry="100" mask="url(#frog-mouth-mask)"></ellipse>
    </g>
  </g>
</symbol>

<symbol id="frog-normal">
  <use href="#frog-base" />
  <use href="#frog-eyes-and-mouth" />
</symbol>

<symbol id="frog-hold">
  <use href="#frog-base" />
  <g transform="translate(15 0)">
    <use href="#frog-eyes-and-mouth" />
  </g>
</symbol>

<symbol id="frog-rest">
  <use href="#frog-base" />
  <use href="#frog-nose" />
  <g class="frog--shifted">
    <rect class="frog__eye frog__eye--closed" x="-85" y="-117"></rect>
    <rect class="frog__eye frog__eye--closed" x="40" y="-117"></rect>
    <rect class="frog__mouth--closed" x="-142" y="-40"></rect>
  </g>
</symbol>

<symbol id="frog-random">
  <g class="frog__random frog--shifted">
    <rect x="-150" y="-115" rx="100px" width="300" height="300"></rect>
    <circle r="40" cx="-60" cy="-110"></circle>
    <circle r="40" cx="60" cy="-110"></circle>

    <path class="frog__eye--excited" d="M -70 -125 a 50 50 0 0 1 30 20 a 70 50 0 0 0 -35 -2"/>
    <path class="frog__eye--excited" d="M 70 -125 a 50 50 0 0 0 -30 20 a 70 50 0 0 1 35 -2"/>

    <g class="frog__mouth--open">
      <rect x="-125" y="-90" rx="110px" width="250" height="260" mask="url(#frog-mouth-mask)"></rect>
      <rect x="-125" y="-90" rx="90px" width="250" height="200" mask="url(#frog-mouth-mask)"></rect>
    </g>
  </g>
  <use href="#frog-nose" />
</symbol>

<symbol id="hand">
  <g transform="translate(100 100) rotate(-30)">
    <g class="hand"">
      <path class="hand__base" d="
      M 0 -13
      C 15 -15 20 0 18 55
      C 18 20 55 37 45 58
      C 45 30 80 45 70 67
      C 75 40 100 60 93 80
      Q 80 120 67 132
      Q 80 150 65 155
      Q 30 165 0 153
      Q -18 145 2 130
      Q -30 120 -32 100
      Q -37 59 -12 60
      C -25 0 -15 -13 0 -13
      z"/>
      <ellipse fill="#716e65" cx="35" cy="145" rx="30" ry="6"></ellipse>
      <path class="hand__base" d="M 67 132 C 70 135 65 130 60 130" />
      <path class="hand__base" d="M -12 60 Q -10 80 -12 83" />
    </g>
  </g
</symbol>


<symbol id="bg">
  <g class="bg--shifted">
    <use href="#bg-notes" class="bg__base--behind"/>
    <use href="#bg-base" class="bg__base--behind" />

    <g id="bg-base">
      <ellipse class="bg__base" cx="525" cy="-860" rx="190" ry="140"></ellipse>
      <ellipse class="bg__base" cx="-525" cy="-860" rx="190" ry="140"></ellipse>

      <path class="bg__base" d="M 0 -870 C 1480 -870 1660 -870 1660 0 C 1660 810 1275 810 0 810 C -1275 810 -1660 810 -1660 0 C -1660 -870 -1480 -870 0 -870 z" />
    </g>

    <path class="bg__mouth" d="M 0 -700 C 1170 -700 1530 -760 1530 0 C 1530 695 1170 695 0 695 C -1170 695 -1530 695  -1530 0 C -1530 -760 -1170 -700 0 -700 z" />

    <ellipse class="bg__nose" cx="-35" cy="-780" rx="15" ry="10"></ellipse>
    <ellipse class="bg__nose" cx="35" cy="-780" rx="15" ry="10"></ellipse>

    <ellipse class="bg__eye" cx="-525" cy="-830" rx="85" ry="65"></ellipse>
    <ellipse class="bg__eye" cx="525" cy="-830" rx="85" ry="65"></ellipse>

    <!-- upper -->
    <line class="bg__line" x1="-1395" x2="1395"  y1="-160" y2="-160"/>
    <line class="bg__line" x1="-1395" x2="1395"  y1="-273" y2="-273"/>
    <line class="bg__line" x1="-1395" x2="1395"  y1="-385" y2="-385"/>

    <!-- down -->
    <line class="bg__line" x1="-1395" x2="1395"  y1="160" y2="160"/>
    <line class="bg__line" x1="-1395" x2="1395"  y1="273" y2="273"/>
    <line class="bg__line" x1="-1395" x2="1395"  y1="385" y2="385"/>

    <g id="bg-notes">
      <g class="bg__note" transform="translate(-1475 760) rotate(-14)">
        <ellipse cx="0" cy="0" rx="70" ry="50" transform="translate(-100 5) rotate(-20)"></ellipse>
        <ellipse cx="0" cy="0" rx="70" ry="50" transform="translate(100 5) rotate(-20)"></ellipse>
        <rect x="-60" y="-250" rx="20" width="30" height="260"></rect>
        <rect x="138" y="-250" rx="20" width="30" height="260"></rect>
        <rect x="-60" y="-250" rx="20" width="225" height="80"></rect>
      </g>

      <g class="bg__note" transform="translate(1270 -755) rotate(-14) scale(0.8)">
        <ellipse cx="0" cy="0" rx="75" ry="55" transform="translate(-95 5) rotate(-20)"></ellipse>
        <rect x="-63" y="-235" rx="20" width="40" height="255"></rect>
      </g>

      <g class="bg__note" transform="translate(1550 -645) rotate(14) scale(1.2)" stroke-width="100">
        <g id="bg-eighth-note">
          <ellipse cx="0" cy="0" rx="70" ry="55" transform="translate(-100 5) rotate(-15)"></ellipse>
          <rect x="-65" y="-215" rx="20" width="35" height="230"></rect>

          <path d="M -35 -208 C 0 -160 130 -90 23 -25 C 30 -55 50 -50 -50 -130 z" />
        </g>
      </g>

      <g class="bg__note" transform="translate(-1010 790) rotate(15) scale(0.8)" stroke-width="175">
        <use href="#bg-eighth-note" />
      </g>
    </g>
  <g>
</symbol>

<symbol id="triangle">
  <g class="triangle--shifted">
    <rect x="-150" y="-100" width="300" height="150" fill="#ffffff00"></rect>
    <path class="triangle" d="M -80 10 Q 0 -10 80 10 L 0 -70 z"></path>
  </g>
</symbol>

<symbol id="triangle-up">
  <g class="triangle__bg"><use href="#triangle"/></g>
</symbol>

<symbol id="triangle-down">
  <g class="triangle__bg"><use href="#triangle" transform="scale(1 -1) translate(0 -150)" /></g>
</symbol>


</defs>
</svg>

